<?xml version="1.0" encoding="UTF-8" standalone="no"?>
<!-- Svg Vector Icons : http://www.onlinewebfonts.com/icon -->

<svg
   xmlns:dc="http://purl.org/dc/elements/1.1/"
   xmlns:cc="http://creativecommons.org/ns#"
   xmlns:rdf="http://www.w3.org/1999/02/22-rdf-syntax-ns#"
   xmlns:svg="http://www.w3.org/2000/svg"
   xmlns="http://www.w3.org/2000/svg"
   xmlns:sodipodi="http://sodipodi.sourceforge.net/DTD/sodipodi-0.dtd"
   xmlns:inkscape="http://www.inkscape.org/namespaces/inkscape"
   version="1.1"
   x="0px"
   y="0px"
   viewBox="0 0 1000 1000"
   enable-background="new 0 0 1000 1000"
   xml:space="preserve"
   id="svg40"
   sodipodi:docname="corazon1.svg"
   inkscape:version="0.92.4 (5da689c313, 2019-01-14)"><defs
   id="defs44" /><sodipodi:namedview
   pagecolor="#ffffff"
   bordercolor="#666666"
   borderopacity="1"
   objecttolerance="10"
   gridtolerance="10"
   guidetolerance="10"
   inkscape:pageopacity="0"
   inkscape:pageshadow="2"
   inkscape:window-width="1920"
   inkscape:window-height="1009"
   id="namedview42"
   showgrid="false"
   inkscape:zoom="0.236"
   inkscape:cx="-27.542373"
   inkscape:cy="500"
   inkscape:window-x="-8"
   inkscape:window-y="-8"
   inkscape:window-maximized="1"
   inkscape:current-layer="svg40" />
<metadata
   id="metadata2"> Svg Vector Icons : http://www.onlinewebfonts.com/icon <rdf:RDF><cc:Work
     rdf:about=""><dc:format>image/svg+xml</dc:format><dc:type
       rdf:resource="http://purl.org/dc/dcmitype/StillImage" /><dc:title></dc:title></cc:Work></rdf:RDF></metadata>
<g
   id="g38"
   transform="matrix(0.92217226,0,0,0.92217226,38.913871,38.909979)"><g
     id="g6"><path
       d="m 990,352.8 c 0,82.7 -35.6,157 -92.3,208.5 h 0.5 L 591.9,867.5 c -30.6,30.6 -61.3,61.2 -91.9,61.2 -30.6,0 -61.2,-30.6 -91.9,-61.2 L 101.9,561.3 h 0.5 C 45.6,509.7 10,435.4 10,352.8 10,197.3 136,71.2 291.5,71.2 c 82.7,0 157,35.6 208.5,92.3 C 551.5,106.8 625.8,71.2 708.5,71.2 864,71.2 990,197.3 990,352.8 Z"
       id="path4"
       inkscape:connector-curvature="0" /></g><g
     id="g8" /><g
     id="g10" /><g
     id="g12" /><g
     id="g14" /><g
     id="g16" /><g
     id="g18" /><g
     id="g20" /><g
     id="g22" /><g
     id="g24" /><g
     id="g26" /><g
     id="g28" /><g
     id="g30" /><g
     id="g32" /><g
     id="g34" /><g
     id="g36" /></g>
</svg>