<?xml version="1.0" encoding="UTF-8" standalone="no"?>
<!-- Svg Vector Icons : http://www.onlinewebfonts.com/icon -->

<svg
   xmlns:dc="http://purl.org/dc/elements/1.1/"
   xmlns:cc="http://creativecommons.org/ns#"
   xmlns:rdf="http://www.w3.org/1999/02/22-rdf-syntax-ns#"
   xmlns:svg="http://www.w3.org/2000/svg"
   xmlns="http://www.w3.org/2000/svg"
   xmlns:sodipodi="http://sodipodi.sourceforge.net/DTD/sodipodi-0.dtd"
   xmlns:inkscape="http://www.inkscape.org/namespaces/inkscape"
   version="1.1"
   x="0px"
   y="0px"
   viewBox="0 0 1000 1000"
   enable-background="new 0 0 1000 1000"
   xml:space="preserve"
   id="svg8"
   sodipodi:docname="f8a352a9c69dc019056198729a6ba188.svg"
   inkscape:version="0.92.4 (5da689c313, 2019-01-14)"><defs
   id="defs12" /><sodipodi:namedview
   pagecolor="#ffffff"
   bordercolor="#666666"
   borderopacity="1"
   objecttolerance="10"
   gridtolerance="10"
   guidetolerance="10"
   inkscape:pageopacity="0"
   inkscape:pageshadow="2"
   inkscape:window-width="1920"
   inkscape:window-height="1009"
   id="namedview10"
   showgrid="false"
   inkscape:zoom="0.236"
   inkscape:cx="-27.542373"
   inkscape:cy="500"
   inkscape:window-x="-8"
   inkscape:window-y="-8"
   inkscape:window-maximized="1"
   inkscape:current-layer="svg8" />
<metadata
   id="metadata2"> Svg Vector Icons : http://www.onlinewebfonts.com/icon <rdf:RDF><cc:Work
     rdf:about=""><dc:format>image/svg+xml</dc:format><dc:type
       rdf:resource="http://purl.org/dc/dcmitype/StillImage" /><dc:title></dc:title></cc:Work></rdf:RDF></metadata>
<g
   id="g6"><path
     d="M 867.5,457.9 500,896.4 132.5,456.1 C 88.6,395 71.2,353.8 71.2,297.3 71.2,192 146.4,97.2 254.9,96.3 c 89.3,-0.7 190.5,90.5 245,159.2 53,-66.3 155.7,-159.2 245,-159.2 105.7,0 183.8,95.7 183.8,201 0.1,56.5 -13.6,100.8 -61.2,160.6 z M 745,38.9 C 642.9,38.9 565.7,98.8 500,161.4 437.4,95 357.1,38.9 255,38.9 111.2,38.9 10,162.5 10,297.3 c 0,72.3 29.6,124.4 62,173.3 l 380.8,456.5 c 42.7,45.2 50.8,45.2 93.5,0 L 928,470.6 c 38.2,-48.9 62,-101 62,-173.3 C 990,162.5 888.8,38.9 745,38.9 Z"
     id="path4"
     inkscape:connector-curvature="0" /></g>
</svg>