<?xml version="1.0" standalone="no"?>
<!DOCTYPE svg PUBLIC "-//W3C//DTD SVG 20010904//EN"
 "http://www.w3.org/TR/2001/REC-SVG-20010904/DTD/svg10.dtd">
<svg version="1.0" xmlns="http://www.w3.org/2000/svg"
 width="900.000000pt" height="1280.000000pt" viewBox="0 0 900.000000 1280.000000"
 preserveAspectRatio="xMidYMid meet">
<metadata>
Created by potrace 1.15, written by Peter Selinger 2001-2017
</metadata>
<g transform="translate(0.000000,1280.000000) scale(0.100000,-0.100000)"
fill="#000000" stroke="none">
<path d="M3400 11782 c-24 -11 -39 -28 -47 -52 -9 -26 -12 -339 -12 -1262 l-1
-1228 -29 -32 -29 -33 -1159 0 c-637 0 -1206 2 -1265 5 -107 5 -107 5 -135
-23 l-28 -27 -3 -1103 c-2 -815 1 -1109 9 -1130 25 -61 -62 -57 1300 -57 886
0 1255 -3 1278 -11 66 -23 61 215 61 -2881 0 -1684 4 -2829 10 -2853 5 -22 21
-50 35 -62 l26 -23 1085 0 c1194 0 1130 -3 1153 61 8 23 11 816 11 2861 0
3114 -5 2874 61 2897 23 8 389 11 1268 11 1157 0 1238 1 1271 18 24 11 39 28
47 52 9 26 12 303 12 1103 1 1146 2 1120 -49 1147 -15 8 -360 12 -1286 13
l-1266 2 -29 33 -29 33 0 1249 c1 840 -2 1256 -9 1269 -6 10 -25 24 -42 30
-23 8 -347 11 -1103 11 -1000 0 -1073 -1 -1106 -18z"/>
</g>
</svg>
