<?xml version="1.0" encoding="UTF-8" standalone="no"?>
<!-- Svg Vector Icons : http://www.onlinewebfonts.com/icon -->

<svg
   xmlns:dc="http://purl.org/dc/elements/1.1/"
   xmlns:cc="http://creativecommons.org/ns#"
   xmlns:rdf="http://www.w3.org/1999/02/22-rdf-syntax-ns#"
   xmlns:svg="http://www.w3.org/2000/svg"
   xmlns="http://www.w3.org/2000/svg"
   xmlns:sodipodi="http://sodipodi.sourceforge.net/DTD/sodipodi-0.dtd"
   xmlns:inkscape="http://www.inkscape.org/namespaces/inkscape"
   version="1.1"
   x="0px"
   y="0px"
   viewBox="0 0 1000 1000"
   enable-background="new 0 0 1000 1000"
   xml:space="preserve"
   id="svg14"
   sodipodi:docname="vela3.svg"
   inkscape:version="0.92.4 (5da689c313, 2019-01-14)"><defs
   id="defs18" /><sodipodi:namedview
   pagecolor="#ffffff"
   bordercolor="#666666"
   borderopacity="1"
   objecttolerance="10"
   gridtolerance="10"
   guidetolerance="10"
   inkscape:pageopacity="0"
   inkscape:pageshadow="2"
   inkscape:window-width="1920"
   inkscape:window-height="1009"
   id="namedview16"
   showgrid="false"
   inkscape:zoom="0.236"
   inkscape:cx="-27.542373"
   inkscape:cy="500"
   inkscape:window-x="-8"
   inkscape:window-y="-8"
   inkscape:window-maximized="1"
   inkscape:current-layer="svg14" />
<metadata
   id="metadata2"> Svg Vector Icons : http://www.onlinewebfonts.com/icon <rdf:RDF><cc:Work
     rdf:about=""><dc:format>image/svg+xml</dc:format><dc:type
       rdf:resource="http://purl.org/dc/dcmitype/StillImage" /><dc:title></dc:title></cc:Work></rdf:RDF></metadata>
<g
   id="g12"
   transform="matrix(0.9221802,0,0,0.9221802,38.9099,38.913791)"><path
     d="M 435.5,260.9 C 434.5,281.1 348.5,297 243,297 144.6,297 63,282.6 51.8,264.4 v 682.9 h 0.7 c 0.6,30.3 86.3,42.8 191.9,42.8 105.6,0 190.7,-15.9 191.4,-37.6 z"
     id="path4"
     inkscape:connector-curvature="0" /><path
     d="M 335.6,176.1 C 335.6,121.7 220.3,10 220.3,10 c 0,0 -44.9,111.7 -44.9,166.1 0,47.5 25.9,70.5 61.3,75.6 -16.1,-4.4 -28.4,-22 -28.4,-57.7 0,-41.7 18.4,-134.4 18.4,-134.4 0,0 59.9,92.8 59.9,134.4 0,36 -12.8,53.6 -22.9,57.7 v -50.1 c 0,-2.3 -14.8,-1.4 -18.1,-1.4 h -1.7 c -3.4,0 -0.3,-0.9 -0.3,1.4 v 62.7 c 0,2.3 -3.1,-3.6 0.3,-3.6 h 1.7 c 3.4,0 18.1,5.9 18.1,3.6 v -11.7 c 30.3,0.1 71.9,-22.3 71.9,-76.5 z"
     id="path6"
     inkscape:connector-curvature="0" /><path
     d="m 948.2,513.2 c -1,20.2 -85.9,35.3 -191.5,35.3 -98.5,0 -180.1,-15.2 -190.2,-33.4 l -1.4,432.1 c 0.6,30.3 86.3,42.8 191.9,42.8 105.6,0 186.8,-15.9 187.4,-37.6 z"
     id="path8"
     inkscape:connector-curvature="0" /><path
     d="M 844.2,426.9 C 844.2,372.5 731,260.8 731,260.8 c 0,0 -43.9,111.7 -43.9,166.1 0,47.5 26.4,70.5 61.8,75.6 -16.1,-4.4 -28.1,-22 -28.1,-57.7 0,-41.7 18.5,-134.4 18.5,-134.4 0,0 56,92.8 56,134.4 0,36 -6.6,53.6 -26.8,57.7 v -50.1 c 0,-2.3 -6.8,0.2 -10.2,0.2 h -1.7 c -3.4,0 -8.3,-2.5 -8.3,-0.2 v 62.8 c 0,2.3 4.9,-2 8.3,-2 h 1.7 c 3.4,0 10.2,4.3 10.2,2 v -11.7 c 30.2,-0.1 75.7,-22.5 75.7,-76.6 z"
     id="path10"
     inkscape:connector-curvature="0" /></g>
</svg>